<?xml version="1.0" standalone="no"?>
<!DOCTYPE svg PUBLIC "-//W3C//DTD SVG 20010904//EN"
 "http://www.w3.org/TR/2001/REC-SVG-20010904/DTD/svg10.dtd">
<svg version="1.0" xmlns="http://www.w3.org/2000/svg"
 width="100.000000pt" height="100.000000pt" viewBox="0 0 100.000000 100.000000"
 preserveAspectRatio="xMidYMid meet">

<g transform="translate(0.000000,100.000000) scale(0.100000,-0.100000)"
fill="#000000" stroke="none">
<path d="M353 894 c-7 -3 -22 -21 -33 -40 l-22 -34 -98 0 c-110 0 -145 -11
-166 -51 -21 -41 -21 -537 0 -578 26 -50 37 -51 467 -51 434 0 443 1 467 55
17 36 17 534 0 570 -19 43 -56 55 -166 55 l-99 0 -32 40 -32 40 -137 -1 c-75
0 -142 -3 -149 -5z m-123 -189 c26 -32 -13 -81 -47 -59 -35 22 -23 74 17 74
10 0 23 -7 30 -15z m371 -33 c168 -87 151 -330 -27 -398 -143 -54 -302 65
-292 218 8 116 105 208 218 208 33 0 64 -9 101 -28z"/>
<path d="M420 638 c-132 -67 -132 -249 0 -315 56 -29 104 -29 160 -1 132 67
132 249 0 316 -24 12 -60 22 -80 22 -20 0 -56 -10 -80 -22z"/>
</g>
</svg>
